<?xml version="1.0" encoding="UTF-8" standalone="no"?>
<!DOCTYPE svg PUBLIC "-//W3C//DTD SVG 1.1//EN"
 "http://www.w3.org/Graphics/SVG/1.1/DTD/svg11.dtd">
<!-- Generated by graphviz version 2.43.0 (0)
 -->
<!-- Title: pastafarianism Pages: 1 -->
<svg width="981pt" height="116pt"
 viewBox="0.00 0.00 981.38 116.00" xmlns="http://www.w3.org/2000/svg" xmlns:xlink="http://www.w3.org/1999/xlink">
<g id="graph0" class="graph" transform="scale(1 1) rotate(0) translate(4 112)">
<title>pastafarianism</title>
<polygon fill="white" stroke="transparent" points="-4,4 -4,-112 977.38,-112 977.38,4 -4,4"/>
<!-- Root -->
<g id="node1" class="node">
<title>Root</title>
<polygon fill="orange" stroke="black" points="510.46,-108 456.46,-108 456.46,-72 510.46,-72 510.46,-108"/>
<text text-anchor="middle" x="483.46" y="-87.8" font-family="Times,serif" font-size="9.00">Ⓜ Root</text>
</g>
<!-- MoveTo_obj1 -->
<g id="node2" class="node">
<title>MoveTo_obj1</title>
<ellipse fill="gray" stroke="black" cx="44.46" cy="-18" rx="44.41" ry="18"/>
<text text-anchor="middle" x="44.46" y="-15.8" font-family="Times,serif" font-size="9.00">MoveTo_obj1</text>
</g>
<!-- Root&#45;&gt;MoveTo_obj1 -->
<g id="edge1" class="edge">
<title>Root&#45;&gt;MoveTo_obj1</title>
<path fill="none" stroke="black" d="M456.02,-86.88C392.38,-81.62 230.04,-66.12 97.46,-36 94.01,-35.22 90.46,-34.31 86.91,-33.33"/>
<polygon fill="black" stroke="black" points="87.59,-29.88 77.01,-30.42 85.61,-36.6 87.59,-29.88"/>
</g>
<!-- PickUp_obj1 -->
<g id="node3" class="node">
<title>PickUp_obj1</title>
<ellipse fill="gray" stroke="black" cx="149.46" cy="-18" rx="42.95" ry="18"/>
<text text-anchor="middle" x="149.46" y="-15.8" font-family="Times,serif" font-size="9.00">PickUp_obj1</text>
</g>
<!-- Root&#45;&gt;PickUp_obj1 -->
<g id="edge2" class="edge">
<title>Root&#45;&gt;PickUp_obj1</title>
<path fill="none" stroke="black" d="M456.37,-85.11C405.82,-77.59 293.87,-59.68 201.46,-36 198.04,-35.12 194.52,-34.15 191,-33.11"/>
<polygon fill="black" stroke="black" points="191.75,-29.68 181.16,-30.09 189.7,-36.37 191.75,-29.68"/>
</g>
<!-- MoveToPlace_obj1 -->
<g id="node4" class="node">
<title>MoveToPlace_obj1</title>
<ellipse fill="gray" stroke="black" cx="268.46" cy="-18" rx="58.13" ry="18"/>
<text text-anchor="middle" x="268.46" y="-15.8" font-family="Times,serif" font-size="9.00">MoveToPlace_obj1</text>
</g>
<!-- Root&#45;&gt;MoveToPlace_obj1 -->
<g id="edge3" class="edge">
<title>Root&#45;&gt;MoveToPlace_obj1</title>
<path fill="none" stroke="black" d="M456.23,-80.13C421.21,-68.73 359.81,-48.74 316.78,-34.73"/>
<polygon fill="black" stroke="black" points="317.67,-31.34 307.08,-31.57 315.5,-38 317.67,-31.34"/>
</g>
<!-- Place_obj1 -->
<g id="node5" class="node">
<title>Place_obj1</title>
<ellipse fill="gray" stroke="black" cx="382.46" cy="-18" rx="38.21" ry="18"/>
<text text-anchor="middle" x="382.46" y="-15.8" font-family="Times,serif" font-size="9.00">Place_obj1</text>
</g>
<!-- Root&#45;&gt;Place_obj1 -->
<g id="edge4" class="edge">
<title>Root&#45;&gt;Place_obj1</title>
<path fill="none" stroke="black" d="M458.75,-71.88C444.49,-62 426.49,-49.52 411.55,-39.17"/>
<polygon fill="black" stroke="black" points="413.38,-36.17 403.16,-33.35 409.39,-41.92 413.38,-36.17"/>
</g>
<!-- MoveTo_obj2 -->
<g id="node6" class="node">
<title>MoveTo_obj2</title>
<ellipse fill="gray" stroke="black" cx="483.46" cy="-18" rx="44.41" ry="18"/>
<text text-anchor="middle" x="483.46" y="-15.8" font-family="Times,serif" font-size="9.00">MoveTo_obj2</text>
</g>
<!-- Root&#45;&gt;MoveTo_obj2 -->
<g id="edge5" class="edge">
<title>Root&#45;&gt;MoveTo_obj2</title>
<path fill="none" stroke="black" d="M483.46,-71.7C483.46,-63.98 483.46,-54.71 483.46,-46.11"/>
<polygon fill="black" stroke="black" points="486.96,-46.1 483.46,-36.1 479.96,-46.1 486.96,-46.1"/>
</g>
<!-- PickUp_obj2 -->
<g id="node7" class="node">
<title>PickUp_obj2</title>
<ellipse fill="gray" stroke="black" cx="588.46" cy="-18" rx="42.95" ry="18"/>
<text text-anchor="middle" x="588.46" y="-15.8" font-family="Times,serif" font-size="9.00">PickUp_obj2</text>
</g>
<!-- Root&#45;&gt;PickUp_obj2 -->
<g id="edge6" class="edge">
<title>Root&#45;&gt;PickUp_obj2</title>
<path fill="none" stroke="black" d="M509.14,-71.88C523.86,-62.06 542.42,-49.69 557.89,-39.38"/>
<polygon fill="black" stroke="black" points="560.2,-42.04 566.58,-33.58 556.32,-36.22 560.2,-42.04"/>
</g>
<!-- MoveToPlace_obj2 -->
<g id="node8" class="node">
<title>MoveToPlace_obj2</title>
<ellipse fill="gray" stroke="black" cx="707.46" cy="-18" rx="58.13" ry="18"/>
<text text-anchor="middle" x="707.46" y="-15.8" font-family="Times,serif" font-size="9.00">MoveToPlace_obj2</text>
</g>
<!-- Root&#45;&gt;MoveToPlace_obj2 -->
<g id="edge7" class="edge">
<title>Root&#45;&gt;MoveToPlace_obj2</title>
<path fill="none" stroke="black" d="M510.48,-80.56C547.01,-69.14 612.81,-48.58 658.24,-34.38"/>
<polygon fill="black" stroke="black" points="659.39,-37.69 667.89,-31.36 657.3,-31.01 659.39,-37.69"/>
</g>
<!-- Place_obj2 -->
<g id="node9" class="node">
<title>Place_obj2</title>
<ellipse fill="gray" stroke="black" cx="821.46" cy="-18" rx="38.21" ry="18"/>
<text text-anchor="middle" x="821.46" y="-15.8" font-family="Times,serif" font-size="9.00">Place_obj2</text>
</g>
<!-- Root&#45;&gt;Place_obj2 -->
<g id="edge8" class="edge">
<title>Root&#45;&gt;Place_obj2</title>
<path fill="none" stroke="black" d="M510.67,-85.59C562.57,-78.75 679.02,-61.76 774.46,-36 777.38,-35.21 780.38,-34.32 783.37,-33.37"/>
<polygon fill="black" stroke="black" points="784.49,-36.69 792.87,-30.2 782.27,-30.05 784.49,-36.69"/>
</g>
<!-- ReturnToStart -->
<g id="node10" class="node">
<title>ReturnToStart</title>
<ellipse fill="gray" stroke="black" cx="925.46" cy="-18" rx="47.84" ry="18"/>
<text text-anchor="middle" x="925.46" y="-15.8" font-family="Times,serif" font-size="9.00">ReturnToStart</text>
</g>
<!-- Root&#45;&gt;ReturnToStart -->
<g id="edge9" class="edge">
<title>Root&#45;&gt;ReturnToStart</title>
<path fill="none" stroke="black" d="M510.78,-86.69C574.16,-81.01 735.91,-64.71 868.46,-36 872.37,-35.15 876.42,-34.17 880.45,-33.11"/>
<polygon fill="black" stroke="black" points="881.69,-36.4 890.4,-30.37 879.83,-29.65 881.69,-36.4"/>
</g>
</g>
</svg>
